<?xml version="1.0" encoding="iso-8859-1"?>
<!-- Generator: Adobe Illustrator 19.0.0, SVG Export Plug-In . SVG Version: 6.00 Build 0)  -->
<svg version="1.1" id="Capa_1" xmlns="http://www.w3.org/2000/svg" xmlns:xlink="http://www.w3.org/1999/xlink" x="0px" y="0px"
	 viewBox="0 0 512 512" style="enable-background:new 0 0 512 512;" xml:space="preserve">
<g>
	<g>
		<path d="M382.7,78H129.3C101.013,78,78,101.013,78,129.3v253.4c0,28.287,23.013,51.3,51.3,51.3h253.4
			c28.287,0,51.3-23.013,51.3-51.3V129.3C434,101.013,410.987,78,382.7,78z M414,382.7c0,17.259-14.041,31.3-31.3,31.3H129.3
			c-17.259,0-31.3-14.041-31.3-31.3V129.3c0-17.259,14.041-31.3,31.3-31.3h253.4c17.259,0,31.3,14.042,31.3,31.3V382.7z"/>
	</g>
</g>
<g>
	<g>
		<path d="M368,222.174c5.522,0,10-4.477,10-10V172c0-20.953-17.047-38-38-38H172c-20.953,0-38,17.047-38,38v168
			c0,20.953,17.047,38,38,38h168c20.953,0,38-17.047,38-38v-36.978c0-5.522-4.478-10-10-10c-5.522,0-10,4.478-10,10V340
			c0,9.925-8.075,18-18,18H172c-9.925,0-18-8.075-18-18v-3h72.333c5.522,0,10-4.478,10-10c0-5.522-4.478-10-10-10H154V172
			c0-9.925,8.075-18,18-18h168c9.925,0,18,8.075,18,18v40.174C358,217.697,362.478,222.174,368,222.174z"/>
	</g>
</g>
<g>
	<g>
		<path d="M375.069,246.74c-1.859-1.86-4.439-2.93-7.069-2.93s-5.21,1.07-7.07,2.93c-1.86,1.86-2.93,4.44-2.93,7.07
			s1.069,5.209,2.93,7.07c1.861,1.861,4.44,2.93,7.07,2.93s5.21-1.069,7.069-2.93c1.86-1.86,2.931-4.44,2.931-7.07
			S376.93,248.6,375.069,246.74z"/>
	</g>
</g>
<g>
	<g>
		<path d="M502,366h-40c-5.522,0-10,4.478-10,10c0,5.522,4.478,10,10,10h40c5.522,0,10-4.478,10-10C512,370.478,507.522,366,502,366
			z"/>
	</g>
</g>
<g>
	<g>
		<path d="M502,306h-40c-5.522,0-10,4.478-10,10c0,5.522,4.478,10,10,10h40c5.522,0,10-4.478,10-10C512,310.478,507.522,306,502,306
			z"/>
	</g>
</g>
<g>
	<g>
		<path d="M502,246h-40c-5.522,0-10,4.477-10,10c0,5.522,4.478,10,10,10h40c5.522,0,10-4.478,10-10C512,250.477,507.522,246,502,246
			z"/>
	</g>
</g>
<g>
	<g>
		<path d="M502,126h-40c-5.522,0-10,4.477-10,10s4.478,10,10,10h40c5.522,0,10-4.477,10-10S507.522,126,502,126z"/>
	</g>
</g>
<g>
	<g>
		<path d="M502,186h-40c-5.522,0-10,4.477-10,10s4.478,10,10,10h40c5.522,0,10-4.477,10-10S507.522,186,502,186z"/>
	</g>
</g>
<g>
	<g>
		<path d="M50,366H10c-5.522,0-10,4.478-10,10c0,5.522,4.478,10,10,10h40c5.522,0,10-4.478,10-10C60,370.478,55.522,366,50,366z"/>
	</g>
</g>
<g>
	<g>
		<path d="M50,306H10c-5.522,0-10,4.478-10,10c0,5.522,4.478,10,10,10h40c5.522,0,10-4.478,10-10C60,310.478,55.522,306,50,306z"/>
	</g>
</g>
<g>
	<g>
		<path d="M50,246H10c-5.522,0-10,4.477-10,10c0,5.522,4.478,10,10,10h40c5.522,0,10-4.478,10-10C60,250.477,55.522,246,50,246z"/>
	</g>
</g>
<g>
	<g>
		<path d="M50,126H10c-5.522,0-10,4.477-10,10s4.478,10,10,10h40c5.522,0,10-4.477,10-10S55.522,126,50,126z"/>
	</g>
</g>
<g>
	<g>
		<path d="M50,186H10c-5.522,0-10,4.477-10,10s4.478,10,10,10h40c5.522,0,10-4.477,10-10S55.522,186,50,186z"/>
	</g>
</g>
<g>
	<g>
		<path d="M136,452c-5.522,0-10,4.478-10,10v40c0,5.522,4.478,10,10,10c5.522,0,10-4.478,10-10v-40C146,456.478,141.522,452,136,452
			z"/>
	</g>
</g>
<g>
	<g>
		<path d="M196,452c-5.522,0-10,4.478-10,10v40c0,5.522,4.478,10,10,10c5.522,0,10-4.478,10-10v-40C206,456.478,201.522,452,196,452
			z"/>
	</g>
</g>
<g>
	<g>
		<path d="M256,452c-5.522,0-10,4.478-10,10v40c0,5.522,4.478,10,10,10c5.522,0,10-4.478,10-10v-40C266,456.478,261.522,452,256,452
			z"/>
	</g>
</g>
<g>
	<g>
		<path d="M376,452c-5.522,0-10,4.478-10,10v40c0,5.522,4.478,10,10,10c5.522,0,10-4.478,10-10v-40C386,456.478,381.522,452,376,452
			z"/>
	</g>
</g>
<g>
	<g>
		<path d="M316,452c-5.522,0-10,4.478-10,10v40c0,5.522,4.478,10,10,10c5.522,0,10-4.478,10-10v-40C326,456.478,321.522,452,316,452
			z"/>
	</g>
</g>
<g>
	<g>
		<path d="M136,0c-5.522,0-10,4.477-10,10v40c0,5.523,4.478,10,10,10c5.522,0,10-4.477,10-10V10C146,4.477,141.522,0,136,0z"/>
	</g>
</g>
<g>
	<g>
		<path d="M196,0c-5.522,0-10,4.477-10,10v40c0,5.523,4.478,10,10,10c5.522,0,10-4.477,10-10V10C206,4.477,201.522,0,196,0z"/>
	</g>
</g>
<g>
	<g>
		<path d="M256,0c-5.522,0-10,4.477-10,10v40c0,5.523,4.478,10,10,10c5.522,0,10-4.477,10-10V10C266,4.477,261.522,0,256,0z"/>
	</g>
</g>
<g>
	<g>
		<path d="M376,0c-5.522,0-10,4.477-10,10v40c0,5.523,4.478,10,10,10c5.522,0,10-4.477,10-10V10C386,4.477,381.522,0,376,0z"/>
	</g>
</g>
<g>
	<g>
		<path d="M316,0c-5.522,0-10,4.477-10,10v40c0,5.523,4.478,10,10,10c5.522,0,10-4.477,10-10V10C326,4.477,321.522,0,316,0z"/>
	</g>
</g>
<g>
	<g>
		<path d="M210.247,271.75h-13.824c-0.744,0-1.35-0.605-1.35-1.35v-28.8c0-0.745,0.606-1.35,1.35-1.35h13.824
			c5.522,0,10-4.477,10-10s-4.478-10-10-10h-13.824c-11.772,0-21.35,9.578-21.35,21.35v28.8c0,11.772,9.577,21.35,21.35,21.35
			h13.824c5.522,0,10-4.478,10-10C220.247,276.228,215.769,271.75,210.247,271.75z"/>
	</g>
</g>
<g>
	<g>
		<path d="M256.904,220.25h-17.067c-5.522,0-10,4.477-10,10v51.5c0,5.522,4.478,10,10,10c5.522,0,10-4.478,10-10V266h7.067
			c12.614,0,22.875-10.262,22.875-22.875C279.779,230.512,269.517,220.25,256.904,220.25z M256.904,246h-7.067v-5.75h7.067
			c1.585,0,2.875,1.29,2.875,2.875S258.489,246,256.904,246z"/>
	</g>
</g>
<g>
	<g>
		<path d="M326.927,220.25c-5.522,0-10,4.477-10,10v36.529c0,2.741-2.229,4.971-4.971,4.971s-4.972-2.229-4.972-4.971V230.25
			c0-5.523-4.477-10-10-10c-5.522,0-10,4.477-10,10v36.529c0,13.769,11.202,24.971,24.972,24.971
			c13.769,0,24.971-11.202,24.971-24.971V230.25C336.927,224.727,332.449,220.25,326.927,220.25z"/>
	</g>
</g>
<g>
	<g>
		<path d="M276.849,319.93c-1.859-1.86-4.439-2.93-7.069-2.93c-2.641,0-5.211,1.069-7.07,2.93c-1.86,1.86-2.93,4.44-2.93,7.07
			s1.069,5.21,2.93,7.069c1.859,1.861,4.439,2.931,7.07,2.931c2.63,0,5.21-1.07,7.069-2.931c1.86-1.859,2.931-4.439,2.931-7.069
			S278.71,321.79,276.849,319.93z"/>
	</g>
</g>
<g>
</g>
<g>
</g>
<g>
</g>
<g>
</g>
<g>
</g>
<g>
</g>
<g>
</g>
<g>
</g>
<g>
</g>
<g>
</g>
<g>
</g>
<g>
</g>
<g>
</g>
<g>
</g>
<g>
</g>
</svg>
